<svg fill="none" height="45" viewBox="0 0 155 45" width="155" xmlns="http://www.w3.org/2000/svg"><g fill="#f5f3ef"><path d="m26.7156 44.3547c4.0001 0 6.7736-1.8667 8.6936-4.3201v3.5734h5.4935v-25.3342h-5.4935v3.0401c-1.6534-2.0267-4.7468-3.7868-8.5336-3.7868-7.3069 0-12.4271 5.4936-12.4271 13.3872 0 7.9469 4.9069 13.4404 12.2671 13.4404zm-6.6669-13.4404c0-4.6402 2.8268-8.3737 6.2936-8.3737h3.3601c3.3067 0 5.5468 2.8802 5.5468 6.2403v4.4268c0 3.4668-2.4001 6.1335-5.5468 6.1335h-3.3601c-3.4668 0-6.2936-3.7334-6.2936-8.4269z"/><path d="m51.781 43.608h8.1069l9.1203-25.3342h-5.3868l-7.2536 20.1074h-.8534l-7.2535-20.1074h-5.6002z"/><path d="m80.5056 44.3547c4.1068 0 6.7735-1.6 8.3202-4.2134v3.4667h5.4402v-25.3342h-5.6002v14.9872c0 3.4668-2.3467 5.8669-4.9601 5.8669h-3.0401c-2.4535 0-4.3202-2.1867-4.3202-5.8669v-14.9872h-5.6002v15.9473c0 6.5602 3.6268 10.1336 9.7604 10.1336z"/><path d="m107.36 44.3547c7.681 0 11.147-2.8801 11.147-8.1069 0-4.0535-2.24-6.6669-7.093-7.2536l-5.974-.7467c-2.293-.32-3.36-1.44-3.36-3.0934s1.12-2.9335 3.52-2.9335h3.2c2.774 0 3.681 1.5468 3.947 3.7335h5.387c-.213-5.8135-4.16-8.427-10.667-8.427-6.827 0-10.6137 2.7735-10.6137 7.8937 0 3.8934 2.2401 6.8802 7.2537 7.4669l5.92.7467c2.294.32 3.254 1.44 3.254 3.0401 0 1.7067-1.174 2.9867-3.681 2.9867h-3.52c-2.88 0-4.266-1.44-4.533-3.6801h-5.387c.2133 5.5469 3.84 8.3736 11.2 8.3736z"/><path clip-rule="evenodd" d="m12.8859 43.608-6.20107-.0001c-3.19659-.0001-5.787907-2.5915-5.787943-5.7881l-.000281-25.2124h5.653864v5.6661h6.33543v4.9068h-6.33543v14.203c0 .6393.51824 1.1576 1.15756 1.1576l5.17787.0003z" fill-rule="evenodd"/></g><rect fill="#f230aa" height="21.3087" rx="10.6544" width="32.7507" x="121.523" y=".733398"/><ellipse cx="132.277" cy="11.3876" fill="#fff" rx="5.88628" ry="5.87979"/><path d="m150.025 11.388-10.003 5.703v-11.40594z" fill="#fff"/></svg>